<svg width="48" height="48" viewBox="0 0 48 48" fill="none" xmlns="http://www.w3.org/2000/svg">
<circle cx="24" cy="24" r="23.5" stroke="white"/>
<path fill-rule="evenodd" clip-rule="evenodd" d="M24.7071 16.2929C24.3166 15.9024 23.6834 15.9024 23.2929 16.2929C22.9024 16.6834 22.9024 17.3166 23.2929 17.7071L28.5858 23H17C16.4477 23 16 23.4477 16 24C16 24.5523 16.4477 25 17 25H28.5858L23.2929 30.2929C22.9024 30.6834 22.9024 31.3166 23.2929 31.7071C23.6834 32.0976 24.3166 32.0976 24.7071 31.7071L31.7064 24.7078C31.7088 24.7054 31.7112 24.703 31.7136 24.7005C31.8901 24.5208 31.9992 24.2746 32 24.003C32 24.002 32 24.001 32 24C32 23.999 32 23.998 32 23.997C31.9996 23.8625 31.9727 23.7343 31.9241 23.6172C31.8764 23.502 31.8063 23.3938 31.7136 23.2995C31.7112 23.297 31.7089 23.2947 31.7065 23.2923M24.7071 16.2929L31.7065 23.2923L24.7071 16.2929Z" fill="white"/>
</svg>
